<?xml version="1.0" encoding="UTF-8"?>
<svg id="_レイヤー_1" data-name="レイヤー_1" xmlns="http://www.w3.org/2000/svg" viewBox="0 0 128 128">
  <g>
    <path d="M3.58,64.5h120.83c1.7,0,3.08,1.38,3.08,3.08v56.84c0,1.7-1.38,3.08-3.08,3.08H3.58c-1.7,0-3.08-1.38-3.08-3.08v-56.84c0-1.7,1.38-3.08,3.08-3.08Z"/>
    <path d="M124.42,65c1.42,0,2.58,1.16,2.58,2.58v56.84c0,1.42-1.16,2.58-2.58,2.58H3.58c-1.42,0-2.58-1.16-2.58-2.58v-56.84c0-1.42,1.16-2.58,2.58-2.58h120.84M124.42,64H3.58c-1.98,0-3.58,1.6-3.58,3.58v56.84c0,1.98,1.6,3.58,3.58,3.58h120.84c1.98,0,3.58-1.6,3.58-3.58v-56.84c0-1.98-1.6-3.58-3.58-3.58h0Z"/>
  </g>
  <g>
    <g>
      <path d="M64,88.43c-.32,0-1.11-.09-1.58-.92l-6.24-10.8c-.27-.46-.76-.75-1.3-.75h-15.07c-16.82,0-30.5-13.68-30.5-30.5v-1.38c0-16.82,13.68-30.5,30.5-30.5h48.38c16.82,0,30.5,13.68,30.5,30.5v1.38c0,16.82-13.68,30.5-30.5,30.5h-15.07c-.54,0-1.03.29-1.3.75l-6.24,10.8c-.48.83-1.27.92-1.58.92Z" style="fill: #fff;"/>
      <path d="M88.19,15.08c15.99,0,29,13.01,29,29v1.38c0,15.99-13.01,29-29,29h-15.07c-1.07,0-2.06.57-2.6,1.5l-6.24,10.8s-.09.16-.28.16-.26-.12-.28-.16l-6.24-10.8c-.54-.93-1.53-1.5-2.6-1.5h-15.07c-15.99,0-29-13.01-29-29v-1.38c0-15.99,13.01-29,29-29h48.38M88.19,12.08h-48.38c-17.67,0-32,14.33-32,32v1.38c0,17.67,14.33,32,32,32h15.07l6.24,10.8c.64,1.11,1.76,1.66,2.88,1.66s2.24-.55,2.88-1.66l6.24-10.8h15.07c17.67,0,32-14.33,32-32v-1.38c0-17.67-14.33-32-32-32h0Z"/>
    </g>
    <g>
      <rect x="16.51" y="46" width="95" height="14" rx="7" ry="7" style="fill: #fcee21;"/>
      <g>
        <path d="M32.09,52.96l-2.03-14.42h-.34v14.47c0,.32-.08.57-.22.75-.15.18-.4.28-.75.28h-3.88c-.35,0-.6-.09-.75-.28s-.22-.44-.22-.75v-19.98c0-.51.12-.89.36-1.13.24-.25.67-.37,1.31-.37h6.85c1.14,0,1.79.55,1.95,1.66l1.53,12.15h.37l1.53-12.15c.16-1.11.81-1.66,1.95-1.66h6.85c.63,0,1.07.12,1.31.37.24.25.36.62.36,1.13v19.98c0,.32-.08.57-.22.75-.15.18-.4.28-.75.28h-3.88c-.35,0-.6-.09-.75-.28s-.22-.44-.22-.75v-14.47h-.34l-2.03,14.42c-.11.72-.51,1.08-1.21,1.08h-5.54c-.7,0-1.11-.36-1.21-1.08Z"/>
        <path d="M65.35,40.27c.18.17.28.37.28.62v3.69c0,.25-.09.45-.28.62-.18.17-.44.25-.75.25h-7.88v3.19h8.62c.32,0,.57.08.75.25s.28.37.28.62v3.67c0,.25-.09.45-.28.62s-.44.25-.75.25h-13.18c-.63,0-1.07-.12-1.31-.37s-.36-.62-.36-1.13v-19.51c0-.51.12-.89.36-1.13.24-.25.67-.37,1.31-.37h12.89c.32,0,.57.08.75.25s.28.37.28.62v3.67c0,.25-.09.45-.28.62-.18.17-.44.25-.75.25h-8.33v3.08h7.88c.32,0,.57.08.75.25Z"/>
        <path d="M83.86,31.78c.18.17.28.37.28.62v3.69c0,.25-.09.45-.28.62-.18.17-.44.25-.75.25h-3.82v16.06c0,.32-.08.57-.22.75s-.4.28-.75.28h-4.25c-.35,0-.6-.09-.75-.28s-.22-.44-.22-.75v-16.06h-3.82c-.32,0-.57-.08-.75-.25-.18-.17-.28-.37-.28-.62v-3.69c0-.25.09-.45.28-.62s.44-.25.75-.25h13.84c.32,0,.57.08.75.25Z"/>
        <path d="M104.83,53.1c.07.28.02.51-.16.69s-.38.26-.61.26h-4.3c-.28,0-.52-.05-.71-.14-.19-.1-.33-.29-.4-.59l-1.05-4.82h-5.12l-1.03,4.82c-.07.3-.2.5-.4.59s-.43.14-.71.14h-4.3c-.23,0-.43-.09-.61-.26s-.23-.4-.16-.69l4.93-20.8c.12-.51.47-.76,1.05-.76h3.8v6.33h-.29l-1.24,5.75h3.03l-1.24-5.75h-.26v-6.33h3.77c.58,0,.93.26,1.05.76l4.93,20.8Z"/>
      </g>
    </g>
  </g>
  <g>
    <path d="M20.5,97.5c-1.65,0-3-1.35-3-3s1.35-3,3-3h88c1.65,0,3,1.35,3,3s-1.35,3-3,3H20.5Z" style="fill: #fff;"/>
    <path d="M108.5,92c1.38,0,2.5,1.12,2.5,2.5s-1.12,2.5-2.5,2.5H20.5c-1.38,0-2.5-1.12-2.5-2.5s1.12-2.5,2.5-2.5h88M108.5,91H20.5c-1.93,0-3.5,1.57-3.5,3.5s1.57,3.5,3.5,3.5h88c1.93,0,3.5-1.57,3.5-3.5s-1.57-3.5-3.5-3.5h0Z"/>
  </g>
  <g>
    <path d="M20.5,107.5c-1.65,0-3-1.35-3-3s1.35-3,3-3h40c1.65,0,3,1.35,3,3s-1.35,3-3,3H20.5Z" style="fill: #fff;"/>
    <path d="M60.5,102c1.38,0,2.5,1.12,2.5,2.5s-1.12,2.5-2.5,2.5H20.5c-1.38,0-2.5-1.12-2.5-2.5s1.12-2.5,2.5-2.5h40M60.5,101H20.5c-1.93,0-3.5,1.57-3.5,3.5s1.57,3.5,3.5,3.5h40c1.92,0,3.5-1.57,3.5-3.5s-1.58-3.5-3.5-3.5h0Z"/>
  </g>
  <g>
    <path d="M70.5,107.5c-1.65,0-3-1.35-3-3s1.35-3,3-3h38c1.65,0,3,1.35,3,3s-1.35,3-3,3h-38Z" style="fill: #fff;"/>
    <path d="M108.5,102c1.38,0,2.5,1.12,2.5,2.5s-1.12,2.5-2.5,2.5h-38c-1.38,0-2.5-1.12-2.5-2.5s1.12-2.5,2.5-2.5h38M108.5,101h-38c-1.92,0-3.5,1.57-3.5,3.5s1.58,3.5,3.5,3.5h38c1.93,0,3.5-1.57,3.5-3.5s-1.57-3.5-3.5-3.5h0Z"/>
  </g>
  <g>
    <path d="M57.5,117.5c-1.65,0-3-1.35-3-3s1.35-3,3-3h51c1.65,0,3,1.35,3,3s-1.35,3-3,3h-51Z" style="fill: #fff;"/>
    <path d="M108.5,112c1.38,0,2.5,1.12,2.5,2.5s-1.12,2.5-2.5,2.5h-51c-1.38,0-2.5-1.12-2.5-2.5s1.12-2.5,2.5-2.5h51M108.5,111h-51c-1.92,0-3.5,1.57-3.5,3.5s1.58,3.5,3.5,3.5h51c1.93,0,3.5-1.57,3.5-3.5s-1.57-3.5-3.5-3.5h0Z"/>
  </g>
  <g>
    <path d="M20.5,117.5c-1.65,0-3-1.35-3-3s1.35-3,3-3h27c1.65,0,3,1.35,3,3s-1.35,3-3,3h-27Z" style="fill: #fff;"/>
    <path d="M47.5,112c1.38,0,2.5,1.12,2.5,2.5s-1.12,2.5-2.5,2.5h-27c-1.38,0-2.5-1.12-2.5-2.5s1.12-2.5,2.5-2.5h27M47.5,111h-27c-1.93,0-3.5,1.57-3.5,3.5s1.57,3.5,3.5,3.5h27c1.92,0,3.5-1.57,3.5-3.5s-1.58-3.5-3.5-3.5h0Z"/>
  </g>
</svg>