<?xml version="1.0" encoding="UTF-8"?>
<svg id="_レイヤー_1" data-name="レイヤー_1" xmlns="http://www.w3.org/2000/svg" viewBox="0 0 16 16">
  <g>
    <rect x=".06" y="8.06" width="15.88" height="7.88" rx=".39" ry=".39"/>
    <path d="M15.55,8.12c.18,0,.32.14.32.32v7.1c0,.18-.14.32-.32.32H.45c-.18,0-.32-.14-.32-.32v-7.1c0-.18.14-.32.32-.32h15.1M15.55,8H.45c-.25,0-.45.2-.45.45v7.1c0,.25.2.45.45.45h15.1c.25,0,.45-.2.45-.45v-7.1c0-.25-.2-.45-.45-.45h0Z"/>
  </g>
  <g>
    <g>
      <path d="M8,11.05s-.14-.01-.2-.11l-.78-1.35c-.03-.06-.1-.09-.16-.09h-1.88c-2.1,0-3.81-1.71-3.81-3.81v-.17c0-2.1,1.71-3.81,3.81-3.81h6.05c2.1,0,3.81,1.71,3.81,3.81v.17c0,2.1-1.71,3.81-3.81,3.81h-1.88c-.07,0-.13.04-.16.09l-.78,1.35c-.06.1-.16.11-.2.11Z" style="fill: #fff;"/>
      <path d="M11.02,1.89c2,0,3.62,1.63,3.62,3.62v.17c0,2-1.63,3.62-3.62,3.62h-1.88c-.13,0-.26.07-.32.19l-.78,1.35s-.01.02-.04.02-.03-.01-.04-.02l-.78-1.35c-.07-.12-.19-.19-.32-.19h-1.88c-2,0-3.62-1.63-3.62-3.62v-.17c0-2,1.63-3.62,3.62-3.62h6.05M11.02,1.51h-6.05C2.77,1.51.98,3.3.98,5.51v.17c0,2.21,1.79,4,4,4h1.88l.78,1.35c.08.14.22.21.36.21s.28-.07.36-.21l.78-1.35h1.88c2.21,0,4-1.79,4-4v-.17c0-2.21-1.79-4-4-4h0Z"/>
    </g>
    <g>
      <rect x="2.06" y="5.75" width="11.87" height="1.75" rx=".87" ry=".87" style="fill: #fcee21;"/>
      <g>
        <path d="M4.01,6.62l-.25-1.8h-.04v1.81s0,.07-.03.09c-.02.02-.05.03-.09.03h-.48s-.08-.01-.09-.03-.03-.05-.03-.09v-2.5c0-.06.02-.11.04-.14.03-.03.08-.05.16-.05h.86c.14,0,.22.07.24.21l.19,1.52h.05l.19-1.52c.02-.14.1-.21.24-.21h.86c.08,0,.13.02.16.05.03.03.04.08.04.14v2.5s0,.07-.03.09c-.02.02-.05.03-.09.03h-.48s-.08-.01-.09-.03c-.02-.02-.03-.05-.03-.09v-1.81h-.04l-.25,1.8c-.01.09-.06.14-.15.14h-.69c-.09,0-.14-.04-.15-.14Z"/>
        <path d="M8.17,5.03s.03.05.03.08v.46s-.01.06-.03.08c-.02.02-.05.03-.09.03h-.99v.4h1.08s.07.01.09.03c.02.02.03.05.03.08v.46s-.01.06-.03.08c-.02.02-.05.03-.09.03h-1.65c-.08,0-.13-.02-.16-.05-.03-.03-.04-.08-.04-.14v-2.44c0-.06.02-.11.04-.14.03-.03.08-.05.16-.05h1.61s.07.01.09.03c.02.02.03.05.03.08v.46s-.01.06-.03.08c-.02.02-.05.03-.09.03h-1.04v.39h.99s.07.01.09.03Z"/>
        <path d="M10.48,3.97s.03.05.03.08v.46s-.01.06-.03.08c-.02.02-.05.03-.09.03h-.48v2.01s0,.07-.03.09c-.02.02-.05.03-.09.03h-.53s-.08-.01-.09-.03-.03-.05-.03-.09v-2.01h-.48s-.07-.01-.09-.03c-.02-.02-.03-.05-.03-.08v-.46s.01-.06.03-.08c.02-.02.05-.03.09-.03h1.73s.07.01.09.03Z"/>
        <path d="M13.1,6.64s0,.06-.02.09-.05.03-.08.03h-.54s-.06,0-.09-.02c-.02-.01-.04-.04-.05-.07l-.13-.6h-.64l-.13.6s-.03.06-.05.07c-.02.01-.05.02-.09.02h-.54s-.05-.01-.08-.03-.03-.05-.02-.09l.62-2.6c.02-.06.06-.1.13-.1h.47v.79h-.04l-.15.72h.38l-.15-.72h-.03v-.79h.47c.07,0,.12.03.13.1l.62,2.6Z"/>
      </g>
    </g>
  </g>
  <g>
    <path d="M2.56,12.19c-.21,0-.38-.17-.38-.38s.17-.38.38-.38h11c.21,0,.38.17.38.38s-.17.38-.38.38H2.56Z" style="fill: #fff;"/>
    <path d="M13.56,11.5c.17,0,.31.14.31.31s-.14.31-.31.31H2.56c-.17,0-.31-.14-.31-.31s.14-.31.31-.31h11M13.56,11.38H2.56c-.24,0-.44.2-.44.44s.2.44.44.44h11c.24,0,.44-.2.44-.44s-.2-.44-.44-.44h0Z"/>
  </g>
  <g>
    <path d="M2.56,13.44c-.21,0-.38-.17-.38-.38s.17-.38.38-.38h5c.21,0,.38.17.38.38s-.17.38-.38.38H2.56Z" style="fill: #fff;"/>
    <path d="M7.56,12.75c.17,0,.31.14.31.31s-.14.31-.31.31H2.56c-.17,0-.31-.14-.31-.31s.14-.31.31-.31h5M7.56,12.62H2.56c-.24,0-.44.2-.44.44s.2.44.44.44h5c.24,0,.44-.2.44-.44s-.2-.44-.44-.44h0Z"/>
  </g>
  <g>
    <path d="M8.81,13.44c-.21,0-.38-.17-.38-.38s.17-.38.38-.38h4.75c.21,0,.38.17.38.38s-.17.38-.38.38h-4.75Z" style="fill: #fff;"/>
    <path d="M13.56,12.75c.17,0,.31.14.31.31s-.14.31-.31.31h-4.75c-.17,0-.31-.14-.31-.31s.14-.31.31-.31h4.75M13.56,12.62h-4.75c-.24,0-.44.2-.44.44s.2.44.44.44h4.75c.24,0,.44-.2.44-.44s-.2-.44-.44-.44h0Z"/>
  </g>
  <g>
    <path d="M7.19,14.69c-.21,0-.38-.17-.38-.38s.17-.38.38-.38h6.37c.21,0,.38.17.38.38s-.17.38-.38.38h-6.37Z" style="fill: #fff;"/>
    <path d="M13.56,14c.17,0,.31.14.31.31s-.14.31-.31.31h-6.37c-.17,0-.31-.14-.31-.31s.14-.31.31-.31h6.37M13.56,13.88h-6.37c-.24,0-.44.2-.44.44s.2.44.44.44h6.37c.24,0,.44-.2.44-.44s-.2-.44-.44-.44h0Z"/>
  </g>
  <g>
    <path d="M2.56,14.69c-.21,0-.38-.17-.38-.38s.17-.38.38-.38h3.38c.21,0,.38.17.38.38s-.17.38-.38.38h-3.38Z" style="fill: #fff;"/>
    <path d="M5.94,14c.17,0,.31.14.31.31s-.14.31-.31.31h-3.38c-.17,0-.31-.14-.31-.31s.14-.31.31-.31h3.38M5.94,13.88h-3.38c-.24,0-.44.2-.44.44s.2.44.44.44h3.38c.24,0,.44-.2.44-.44s-.2-.44-.44-.44h0Z"/>
  </g>
</svg>