<?xml version="1.0" encoding="UTF-8"?>
<svg id="_レイヤー_1" data-name="レイヤー_1" xmlns="http://www.w3.org/2000/svg" viewBox="0 0 48 48">
  <g>
    <rect x=".19" y="24.19" width="47.62" height="23.62" rx="1.16" ry="1.16"/>
    <path d="M46.66,24.38c.53,0,.97.43.97.97v21.31c0,.53-.43.97-.97.97H1.34c-.53,0-.97-.43-.97-.97v-21.31c0-.53.43-.97.97-.97h45.31M46.66,24H1.34c-.74,0-1.34.6-1.34,1.34v21.31c0,.74.6,1.34,1.34,1.34h45.31c.74,0,1.34-.6,1.34-1.34v-21.31c0-.74-.6-1.34-1.34-1.34h0Z"/>
  </g>
  <g>
    <g>
      <path d="M24,33.16c-.12,0-.42-.03-.59-.34l-2.34-4.05c-.1-.17-.29-.28-.49-.28h-5.65c-6.31,0-11.44-5.13-11.44-11.44v-.52c0-6.31,5.13-11.44,11.44-11.44h18.14c6.31,0,11.44,5.13,11.44,11.44v.52c0,6.31-5.13,11.44-11.44,11.44h-5.65c-.2,0-.39.11-.49.28l-2.34,4.05c-.18.31-.47.34-.59.34Z" style="fill: #fff;"/>
      <path d="M33.07,5.66c6,0,10.87,4.88,10.87,10.87v.52c0,6-4.88,10.87-10.87,10.87h-5.65c-.4,0-.77.21-.97.56l-2.34,4.05s-.04.06-.11.06-.1-.04-.11-.06l-2.34-4.05c-.2-.35-.57-.56-.97-.56h-5.65c-6,0-10.87-4.88-10.87-10.87v-.52c0-6,4.88-10.87,10.87-10.87h18.14M33.07,4.53H14.93c-6.63,0-12,5.37-12,12v.52c0,6.63,5.37,12,12,12h5.65l2.34,4.05c.24.42.66.62,1.08.62s.84-.21,1.08-.62l2.34-4.05h5.65c6.63,0,12-5.37,12-12v-.52c0-6.63-5.37-12-12-12h0Z"/>
    </g>
    <g>
      <rect x="6.19" y="17.25" width="35.62" height="5.25" rx="2.6" ry="2.6" style="fill: #fcee21;"/>
      <g>
        <path d="M12.04,19.86l-.76-5.41h-.13v5.43c0,.12-.03.21-.08.28s-.15.1-.28.1h-1.45c-.13,0-.23-.03-.28-.1-.06-.07-.08-.16-.08-.28v-7.49c0-.19.04-.33.13-.42.09-.09.25-.14.49-.14h2.57c.43,0,.67.21.73.62l.57,4.56h.14l.57-4.56c.06-.42.3-.62.73-.62h2.57c.24,0,.4.05.49.14.09.09.13.23.13.42v7.49c0,.12-.03.21-.08.28-.06.07-.15.1-.28.1h-1.45c-.13,0-.23-.03-.28-.1-.06-.07-.08-.16-.08-.28v-5.43h-.13l-.76,5.41c-.04.27-.19.41-.45.41h-2.08c-.26,0-.42-.13-.45-.41Z"/>
        <path d="M24.51,15.1c.07.06.1.14.1.23v1.38c0,.09-.03.17-.1.23-.07.06-.16.09-.28.09h-2.96v1.2h3.23c.12,0,.21.03.28.09.07.06.1.14.1.23v1.37c0,.09-.04.17-.1.23-.07.06-.16.09-.28.09h-4.94c-.24,0-.4-.05-.49-.14-.09-.09-.13-.23-.13-.42v-7.32c0-.19.04-.33.13-.42.09-.09.25-.14.49-.14h4.83c.12,0,.21.03.28.09.07.06.1.14.1.23v1.37c0,.09-.03.17-.1.23-.07.06-.16.09-.28.09h-3.12v1.16h2.96c.12,0,.21.03.28.09Z"/>
        <path d="M31.45,11.92c.07.06.1.14.1.23v1.38c0,.09-.03.17-.1.23-.07.06-.16.09-.28.09h-1.43v6.02c0,.12-.03.21-.08.28-.06.07-.15.1-.28.1h-1.59c-.13,0-.23-.03-.28-.1-.06-.07-.08-.16-.08-.28v-6.02h-1.43c-.12,0-.21-.03-.28-.09-.07-.06-.1-.14-.1-.23v-1.38c0-.09.04-.17.1-.23.07-.06.16-.09.28-.09h5.19c.12,0,.21.03.28.09Z"/>
        <path d="M39.31,19.91c.03.11,0,.19-.06.26s-.14.1-.23.1h-1.61c-.11,0-.19-.02-.27-.05-.07-.04-.12-.11-.15-.22l-.4-1.81h-1.92l-.39,1.81c-.03.11-.08.19-.15.22s-.16.05-.27.05h-1.61c-.09,0-.16-.03-.23-.1s-.09-.15-.06-.26l1.85-7.8c.05-.19.18-.29.4-.29h1.42v2.37h-.11l-.46,2.16h1.14l-.46-2.16h-.1v-2.37h1.41c.22,0,.35.1.4.29l1.85,7.8Z"/>
      </g>
    </g>
  </g>
  <g>
    <path d="M7.69,36.56c-.62,0-1.12-.5-1.12-1.12s.5-1.12,1.12-1.12h33c.62,0,1.12.5,1.12,1.12s-.5,1.12-1.12,1.12H7.69Z" style="fill: #fff;"/>
    <path d="M40.69,34.5c.52,0,.94.42.94.94s-.42.94-.94.94H7.69c-.52,0-.94-.42-.94-.94s.42-.94.94-.94h33M40.69,34.12H7.69c-.72,0-1.31.59-1.31,1.31s.59,1.31,1.31,1.31h33c.72,0,1.31-.59,1.31-1.31s-.59-1.31-1.31-1.31h0Z"/>
  </g>
  <g>
    <path d="M7.69,40.31c-.62,0-1.12-.5-1.12-1.12s.5-1.12,1.12-1.12h15c.62,0,1.12.5,1.12,1.12s-.5,1.12-1.12,1.12H7.69Z" style="fill: #fff;"/>
    <path d="M22.69,38.25c.52,0,.94.42.94.94s-.42.94-.94.94H7.69c-.52,0-.94-.42-.94-.94s.42-.94.94-.94h15M22.69,37.88H7.69c-.72,0-1.31.59-1.31,1.31s.59,1.31,1.31,1.31h15c.72,0,1.31-.59,1.31-1.31s-.59-1.31-1.31-1.31h0Z"/>
  </g>
  <g>
    <path d="M26.44,40.31c-.62,0-1.12-.5-1.12-1.12s.5-1.12,1.12-1.12h14.25c.62,0,1.12.5,1.12,1.12s-.5,1.12-1.12,1.12h-14.25Z" style="fill: #fff;"/>
    <path d="M40.69,38.25c.52,0,.94.42.94.94s-.42.94-.94.94h-14.25c-.52,0-.94-.42-.94-.94s.42-.94.94-.94h14.25M40.69,37.88h-14.25c-.72,0-1.31.59-1.31,1.31s.59,1.31,1.31,1.31h14.25c.72,0,1.31-.59,1.31-1.31s-.59-1.31-1.31-1.31h0Z"/>
  </g>
  <g>
    <path d="M21.56,44.06c-.62,0-1.13-.5-1.13-1.12s.5-1.12,1.13-1.12h19.12c.62,0,1.12.5,1.12,1.12s-.5,1.12-1.12,1.12h-19.12Z" style="fill: #fff;"/>
    <path d="M40.69,42c.52,0,.94.42.94.94s-.42.94-.94.94h-19.12c-.52,0-.94-.42-.94-.94s.42-.94.94-.94h19.12M40.69,41.62h-19.12c-.72,0-1.31.59-1.31,1.31s.59,1.31,1.31,1.31h19.12c.72,0,1.31-.59,1.31-1.31s-.59-1.31-1.31-1.31h0Z"/>
  </g>
  <g>
    <path d="M7.69,44.06c-.62,0-1.12-.5-1.12-1.12s.5-1.12,1.12-1.12h10.12c.62,0,1.12.5,1.12,1.12s-.5,1.12-1.12,1.12H7.69Z" style="fill: #fff;"/>
    <path d="M17.81,42c.52,0,.94.42.94.94s-.42.94-.94.94H7.69c-.52,0-.94-.42-.94-.94s.42-.94.94-.94h10.12M17.81,41.62H7.69c-.72,0-1.31.59-1.31,1.31s.59,1.31,1.31,1.31h10.12c.72,0,1.31-.59,1.31-1.31s-.59-1.31-1.31-1.31h0Z"/>
  </g>
</svg>